<svg width="24" height="24" viewBox="0 0 24 24" fill="none" xmlns="http://www.w3.org/2000/svg">
<g clip-path="url(#clip0_217_290)">
<path d="M17.7897 6.00002C17.6035 6.18738 17.4989 6.44083 17.4989 6.70502C17.4989 6.96921 17.6035 7.22266 17.7897 7.41002L21.4197 11L0.999683 11C0.734466 11 0.48011 11.1054 0.292574 11.2929C0.105037 11.4804 -0.000318791 11.7348 -0.000318802 12C-0.000318814 12.2652 0.105037 12.5196 0.292574 12.7071C0.48011 12.8947 0.734466 13 0.999683 13L21.4097 13L17.7897 16.62C17.696 16.713 17.6216 16.8236 17.5708 16.9454C17.52 17.0673 17.4939 17.198 17.4939 17.33C17.4939 17.462 17.52 17.5927 17.5708 17.7146C17.6216 17.8365 17.696 17.9471 17.7897 18.04C17.9771 18.2263 18.2305 18.3308 18.4947 18.3308C18.7589 18.3308 19.0123 18.2263 19.1997 18.04L23.1197 14.13C23.6815 13.5675 23.9971 12.805 23.9971 12.01C23.9971 11.215 23.6815 10.4525 23.1197 9.89002L19.1997 6.00002C19.0123 5.81377 18.7589 5.70923 18.4947 5.70923C18.2305 5.70923 17.9771 5.81377 17.7897 6.00002Z" fill="#303030"/>
</g>
<defs>
<clipPath id="clip0_217_290">
<rect width="24" height="24" fill="white" transform="translate(24) rotate(90)"/>
</clipPath>
</defs>
</svg>
