<svg width="40" height="40" viewBox="0 0 40 40" fill="none" xmlns="http://www.w3.org/2000/svg">
<path d="M38.2608 18.262H1.7391C0.778613 18.262 0 19.0405 0 20.001C0 20.9615 0.778613 21.7401 1.7391 21.7401H38.2608C39.2213 21.7401 40 20.9615 40 20.001C40 19.0405 39.2213 18.262 38.2608 18.262Z" fill="#F7F7F7"/>
<path d="M1.7391 9.56562H38.2608C39.2213 9.56562 40 8.787 40 7.82652C40 6.86602 39.2213 6.0874 38.2608 6.0874H1.7391C0.778613 6.0874 0 6.86602 0 7.82652C0 8.787 0.778613 9.56562 1.7391 9.56562Z" fill="#F7F7F7"/>
<path d="M38.2608 30.4351H1.7391C0.778613 30.4351 0 31.2137 0 32.1742C0 33.1347 0.778613 33.9134 1.7391 33.9134H38.2608C39.2213 33.9134 40 33.1347 40 32.1742C40 31.2137 39.2213 30.4351 38.2608 30.4351Z" fill="#F7F7F7"/>
</svg>
