<svg width="75" height="22" viewBox="0 0 75 22" fill="none" xmlns="http://www.w3.org/2000/svg">
<path d="M8.95215 21.3281H4.30859L4.33789 17.9004H8.95215C10.1045 17.9004 11.0762 17.6416 11.8672 17.124C12.6582 16.5967 13.2539 15.8301 13.6543 14.8242C14.0645 13.8184 14.2695 12.6025 14.2695 11.1768V10.1367C14.2695 9.04297 14.1523 8.08105 13.918 7.25098C13.6934 6.4209 13.3564 5.72266 12.9072 5.15625C12.458 4.58984 11.9062 4.16504 11.252 3.88184C10.5977 3.58887 9.8457 3.44238 8.99609 3.44238H4.2207V0H8.99609C10.4219 0 11.7256 0.244141 12.9072 0.732422C14.0986 1.21094 15.1289 1.89941 15.998 2.79785C16.8672 3.69629 17.5361 4.77051 18.0049 6.02051C18.4834 7.26074 18.7227 8.64258 18.7227 10.166V11.1768C18.7227 12.6904 18.4834 14.0723 18.0049 15.3223C17.5361 16.5723 16.8672 17.6465 15.998 18.5449C15.1387 19.4336 14.1084 20.1221 12.9072 20.6104C11.7158 21.0889 10.3975 21.3281 8.95215 21.3281ZM6.79883 0V21.3281H0V0H6.79883Z" fill="#EEEEEE"/>
<path d="M39.5744 0V21.3281H35.1799L26.6105 7.03125V21.3281H22.216V0H26.6105L35.1945 14.3115V0H39.5744Z" fill="#EEEEEE"/>
<path d="M57.4086 17.9004V21.3281H46.6713V17.9004H57.4086ZM48.0922 0V21.3281H43.6977V0H48.0922Z" fill="#EEEEEE"/>
<path d="M65.0182 16.875L70.0426 0H74.9352L67.5084 21.3281H64.2857L65.0182 16.875ZM60.3893 0L65.399 16.875L66.1607 21.3281H62.9088L55.526 0H60.3893Z" fill="#EEEEEE"/>
</svg>
